<svg xmlns="http://www.w3.org/2000/svg" viewBox="0 0 21 26"><defs><style>.cls-1{opacity:0.9;}.cls-2{fill:#f8f8f8;fill-rule:evenodd;}</style></defs><title>16資產 1</title><g id="圖層_2" data-name="圖層 2"><g id="圖層_1-2" data-name="圖層 1"><g id="Page-1" class="cls-1"><path id="Fill-1" class="cls-2" d="M17.54,13.81a5.9,5.9,0,0,1,2.78-5,6,6,0,0,0-4.71-2.57c-2-.21-3.92,1.19-4.94,1.19S8.08,6.32,6.41,6.35A6.3,6.3,0,0,0,1.08,9.61c-2.27,4-.58,9.87,1.63,13.1C3.8,24.29,5.09,26.06,6.78,26S9,24.93,11,24.93s2.53,1.07,4.26,1,2.87-1.61,3.94-3.2A14,14,0,0,0,21,19.07,5.71,5.71,0,0,1,17.54,13.81ZM14.29,4.15A5.74,5.74,0,0,0,15.63,0a5.74,5.74,0,0,0-3.79,2,5.43,5.43,0,0,0-1.37,4A4.74,4.74,0,0,0,14.29,4.15Z"/></g></g></g></svg>