<svg xmlns="http://www.w3.org/2000/svg" xmlns:xlink="http://www.w3.org/1999/xlink" viewBox="0 0 23.64 25.37"><defs><style>.cls-1{fill:#fff;}.cls-1,.cls-2{fill-rule:evenodd;}.cls-2{fill:#f8f8f8;}.cls-3{mask:url(#mask);}.cls-4{mask:url(#mask-2-2);}.cls-5{mask:url(#mask-3);}.cls-6{mask:url(#mask-4);}.cls-7{mask:url(#mask-5);}</style><mask id="mask" x="0.08" y="0" width="23.56" height="25.37" maskUnits="userSpaceOnUse"><g id="mask-2"><polygon id="path-1" class="cls-1" points="0.08 0 17.85 0 17.85 25.37 0.08 25.37 0.08 0"/></g></mask><mask id="mask-2-2" x="0.08" y="0" width="17.77" height="25.37" maskUnits="userSpaceOnUse"><g id="mask-2-3" data-name="mask-2"><polygon id="path-1-2" data-name="path-1" class="cls-1" points="0.08 0 17.85 0 17.85 25.37 0.08 25.37 0.08 0"/></g></mask><mask id="mask-3" x="0.08" y="0" width="17.77" height="25.37" maskUnits="userSpaceOnUse"><g id="mask-2-4" data-name="mask-2"><polygon id="path-1-3" data-name="path-1" class="cls-1" points="0.08 0 17.85 0 17.85 25.37 0.08 25.37 0.08 0"/></g></mask><mask id="mask-4" x="0.08" y="0" width="21.53" height="25.37" maskUnits="userSpaceOnUse"><g id="mask-2-5" data-name="mask-2"><polygon id="path-1-4" data-name="path-1" class="cls-1" points="0.08 0 17.85 0 17.85 25.37 0.08 25.37 0.08 0"/></g></mask><mask id="mask-5" x="0" y="0" width="17.85" height="25.37" maskUnits="userSpaceOnUse"><g id="mask-2-6" data-name="mask-2"><polygon id="path-1-5" data-name="path-1" class="cls-1" points="0.08 0 17.85 0 17.85 25.37 0.08 25.37 0.08 0"/></g></mask></defs><title>15資產 1</title><g id="圖層_2" data-name="圖層 2"><g id="圖層_1-2" data-name="圖層 1"><g id="Page-1"><g id="Group-64"><path id="Fill-1" class="cls-2" d="M20.15,8.31h-.07a1.52,1.52,0,0,0-1.51,1.51v6.59a1.52,1.52,0,0,0,1.51,1.51h.07a1.52,1.52,0,0,0,1.51-1.51V9.82A1.52,1.52,0,0,0,20.15,8.31Z"/><g class="cls-3"><path class="cls-2" d="M22.13,7.22h-.06a1.52,1.52,0,0,0-1.51,1.52v6.58a1.52,1.52,0,0,0,1.51,1.52h.06a1.52,1.52,0,0,0,1.51-1.52V8.74A1.52,1.52,0,0,0,22.13,7.22Z"/></g><g class="cls-4"><path id="Fill-3" class="cls-2" d="M3.81,18.91A1.39,1.39,0,0,0,5.2,20.3H6.68v3.56a1.52,1.52,0,0,0,1.51,1.51h.07a1.52,1.52,0,0,0,1.51-1.51V20.3h2.07v3.56a1.52,1.52,0,0,0,1.52,1.51h.06a1.52,1.52,0,0,0,1.51-1.51V20.3h1.48a1.39,1.39,0,0,0,1.39-1.39V8.52h-14Z"/></g><g class="cls-5"><path id="Fill-4" class="cls-2" d="M14.29,2.21,15.47.39A.27.27,0,0,0,15.4,0a.25.25,0,0,0-.35.08L13.83,2a8,8,0,0,0-6,0L6.57.12A.25.25,0,0,0,6.22,0a.26.26,0,0,0-.08.35L7.32,2.21A6,6,0,0,0,3.76,7.48c0,.13,0,.27,0,.41H17.83c0-.14,0-.28,0-.41A6,6,0,0,0,14.29,2.21ZM7.55,5.47a.68.68,0,1,1,.68-.68A.67.67,0,0,1,7.55,5.47Zm6.51,0a.68.68,0,1,1,.68-.68A.67.67,0,0,1,14.06,5.47Z"/></g><g class="cls-6"><path id="Fill-6" class="cls-2" d="M20.1,8.27H20a1.52,1.52,0,0,0-1.51,1.52v6.58A1.52,1.52,0,0,0,20,17.89h.06a1.52,1.52,0,0,0,1.51-1.52V9.79A1.52,1.52,0,0,0,20.1,8.27Z"/></g><g class="cls-7"><path class="cls-2" d="M1.57,8.27H1.51A1.52,1.52,0,0,0,0,9.79v6.58a1.52,1.52,0,0,0,1.51,1.52h.06a1.52,1.52,0,0,0,1.51-1.52V9.79A1.52,1.52,0,0,0,1.57,8.27Z"/></g></g></g></g></g></svg>