<svg id="圖層_1" data-name="圖層 1" xmlns="http://www.w3.org/2000/svg" viewBox="0 0 18 16"><defs><style>.cls-1{fill:#fdd609;}</style></defs><title>8工作區域 1</title><g id="Page-1"><g id="Group"><path id="Path" class="cls-1" d="M13.4,8.26v-1a3.08,3.08,0,0,0,3.08-3.08V2.09H13.91v-1h3.63V4.15A4.15,4.15,0,0,1,13.4,8.26Z"/><path class="cls-1" d="M3.87,8.09A5.17,5.17,0,0,1,0,3.12V1.06H3.63v1H1.06v1a4.12,4.12,0,0,0,3.07,4Z"/><polygon class="cls-1" points="7.83 10.41 9.89 10.41 9.89 14.97 7.83 14.97 7.83 10.41"/><path id="Combined-Shape" class="cls-1" d="M3.12,0h11.3V5.69a5.65,5.65,0,0,1-11.3,0ZM13,4.11l-2.91-.42L8.77,1.05,7.47,3.69l-2.91.42L6.67,6.17l-.5,2.89,2.6-1.37,2.61,1.37-.51-2.89Z"/><path class="cls-1" d="M13.51,15v1H4V15a1.23,1.23,0,0,1,1.35-1h6.77A1.23,1.23,0,0,1,13.51,15Z"/></g></g></svg>