<svg id="圖層_1" data-name="圖層 1" xmlns="http://www.w3.org/2000/svg" viewBox="0 0 16 16"><defs><style>.cls-1{opacity:0.9;}.cls-2{fill:#f8f8f8;}</style></defs><title>10工作區域 1</title><g id="Page-1" class="cls-1"><path id="Combined-Shape" class="cls-2" d="M8,0A8,8,0,1,1,0,8,8,8,0,0,1,8,0ZM8,15A7,7,0,1,0,1.05,8,7,7,0,0,0,8,15Zm.53-7.42a2.57,2.57,0,0,1,0,5v.83a.53.53,0,1,1-1.06,0v-.84a2.49,2.49,0,0,1-1.61-1.1A.52.52,0,0,1,6,10.72a.53.53,0,0,1,.73.15,1.5,1.5,0,0,0,.73.59v-3a2.57,2.57,0,0,1,0-5V2.61a.53.53,0,1,1,1.06,0v.84a2.49,2.49,0,0,1,1.61,1.1.52.52,0,0,1-.15.73.53.53,0,0,1-.73-.15,1.5,1.5,0,0,0-.73-.59ZM6.48,6a1.53,1.53,0,0,0,1,1.42V4.54A1.52,1.52,0,0,0,6.48,6Zm2,5.5a1.51,1.51,0,0,0,0-2.84Z"/></g></svg>