<svg id="圖層_1" data-name="圖層 1" xmlns="http://www.w3.org/2000/svg" viewBox="0 0 16 16"><defs><style>.cls-1{opacity:0.9;}.cls-2{fill:#f8f8f8;}</style></defs><title>9工作區域 1</title><g id="Page-1" class="cls-1"><path id="Combined-Shape" class="cls-2" d="M15.27,8.07a1.08,1.08,0,0,1,.73,1v2.18a1.08,1.08,0,0,1-.73,1v2.25A1.45,1.45,0,0,1,13.82,16H1.45A1.45,1.45,0,0,1,0,14.55V5.82A1.46,1.46,0,0,1,1.45,4.36H2.71L9.87.2A1.41,1.41,0,0,1,11,.05a1.46,1.46,0,0,1,.88.68l2.08,3.65a1.45,1.45,0,0,1,1.34,1.44ZM13.09,4.36,12.3,3,9.92,4.36Zm-1.15-2-.36-.63L7,4.36H8.47ZM10.24.82,4.16,4.36H5.59l5.62-3.27h0a.7.7,0,0,0-.43-.34A.72.72,0,0,0,10.24.82Zm4.31,13.73V12.36H12.36a2.18,2.18,0,0,1,0-4.36h2.19V5.82a.73.73,0,0,0-.73-.73H1.45a.73.73,0,0,0-.72.73v8.73a.72.72,0,0,0,.72.72H13.82A.73.73,0,0,0,14.55,14.55Zm.72-3.28V9.09a.36.36,0,0,0-.36-.36H12.36a1.46,1.46,0,0,0,0,2.91h2.55A.37.37,0,0,0,15.27,11.27ZM12.36,9.45a.73.73,0,0,1,0,1.46.73.73,0,0,1,0-1.46Z"/></g></svg>