<svg xmlns="http://www.w3.org/2000/svg" viewBox="0 0 34 34"><defs><style>.cls-1,.cls-2{fill:#191919;fill-rule:evenodd;}.cls-2{opacity:1;isolation:isolate;}</style></defs><title>3資產 1</title><g id="圖層_2" data-name="圖層 2"><g id="圖層_1-2" data-name="圖層 1"><g id="Page-1"><g id="Group-23"><path id="ico-status" class="cls-1" d="M17,0A17,17,0,1,1,0,17,17,17,0,0,1,17,0Zm0,32.13A15.13,15.13,0,1,0,1.87,17,15.14,15.14,0,0,0,17,32.13Z"/><path id="Fill-1" class="cls-2" d="M22,29a2.14,2.14,0,0,0,2.18-2.19V7.18A2.14,2.14,0,0,0,22,5h-9.8A2.14,2.14,0,0,0,10,7.18V26.81A2.14,2.14,0,0,0,12.18,29Zm-4.9-.91A1.09,1.09,0,1,1,18.17,27,1.09,1.09,0,0,1,17.08,28.09ZM14.36,6.33a.23.23,0,0,1,.23-.24h5a.24.24,0,0,1,.24.24v.06a.24.24,0,0,1-.24.24h-5a.23.23,0,0,1-.23-.24ZM11.09,25.15h12V7.72h-12Z"/></g></g></g></g></svg>