<svg id="圖層_1" data-name="圖層 1" xmlns="http://www.w3.org/2000/svg" xmlns:xlink="http://www.w3.org/1999/xlink" viewBox="0 0 95 95"><defs><style>.cls-1{fill:#191919;opacity:0.8;isolation:isolate;}.cls-2{filter:url(#filter-2);}.cls-3{fill:#fdd609;}</style><filter id="filter-2" x="-3.3" y="-3.4" width="113.3" height="113.4" name="filter-2"><feOffset result="shadowOffsetOuter1" dx="3" dy="3" in="SourceAlpha"/><feGaussianBlur result="shadowBlurOuter1" stdDeviation="1.5" in="shadowOffsetOuter1"/><feColorMatrix values="0 0 0 0 0 0 0 0 0 0 0 0 0 0 0 0 0 0 0.14 0" in="shadowBlurOuter1"/></filter></defs><title>8工作區域 1</title><g id="Page-1"><g id="Group-16"><circle id="Oval" class="cls-1" cx="44" cy="45" r="35"/><g id="Shape"><g class="cls-2"><path id="path-1" d="M63.15,0H26.35L0,26.35v37.3L26.35,89.5h37.3L90,63.15V26.35ZM44.75,71.11a6.47,6.47,0,1,1,6.47-6.47A6.58,6.58,0,0,1,44.75,71.11Zm5-21.39H39.78V19.89h9.94Z"/></g><path class="cls-3" d="M63.15,0H26.35L0,26.35v37.3L26.35,89.5h37.3L90,63.15V26.35ZM44.75,71.11a6.47,6.47,0,1,1,6.47-6.47A6.58,6.58,0,0,1,44.75,71.11Zm5-21.39H39.78V19.89h9.94Z"/></g></g></g></svg>