<svg xmlns="http://www.w3.org/2000/svg" viewBox="0 0 16 10.67"><defs><style>.cls-1{opacity:0.6;}.cls-2{fill:#191919;}</style></defs><title>15資產 1</title><g id="圖層_2" data-name="圖層 2"><g id="圖層_1-2" data-name="圖層 1"><g id="Page-1" class="cls-1"><path id="Shape" class="cls-2" d="M15.82,4.63A9,9,0,0,0,8,0,9,9,0,0,0,.18,4.63,1.47,1.47,0,0,0,.18,6,9,9,0,0,0,8,10.67,9,9,0,0,0,15.82,6,1.47,1.47,0,0,0,15.82,4.63ZM7.62,9.14a3.81,3.81,0,1,1,3.81-3.81A3.8,3.8,0,0,1,7.62,9.14Zm3.05-3.81a3.05,3.05,0,0,1-6.1,0A3,3,0,0,1,4.93,3.9h0A1.26,1.26,0,1,0,6.18,2.64h0a3.16,3.16,0,0,1,1.44-.35A3,3,0,0,1,10.67,5.33Z"/></g></g></g></svg>