<?xml version="1.0" encoding="UTF-8"?>
<svg width="62px" height="62px" viewBox="0 0 62 62" version="1.1" xmlns="http://www.w3.org/2000/svg" xmlns:xlink="http://www.w3.org/1999/xlink">
    <!-- Generator: Sketch 57.1 (83088) - https://sketch.com -->
    <title>Group 28</title>
    <desc>Created with Sketch.</desc>
    <defs>
        <filter x="-32.0%" y="-32.0%" width="164.0%" height="164.0%" filterUnits="objectBoundingBox" id="filter-1">
            <feOffset dx="2" dy="2" in="SourceAlpha" result="shadowOffsetOuter1"></feOffset>
            <feGaussianBlur stdDeviation="3" in="shadowOffsetOuter1" result="shadowBlurOuter1"></feGaussianBlur>
            <feColorMatrix values="0 0 0 0 0   0 0 0 0 0   0 0 0 0 0  0 0 0 0.2 0" type="matrix" in="shadowBlurOuter1" result="shadowMatrixOuter1"></feColorMatrix>
            <feMerge>
                <feMergeNode in="shadowMatrixOuter1"></feMergeNode>
                <feMergeNode in="SourceGraphic"></feMergeNode>
            </feMerge>
        </filter>
        <linearGradient x1="54.4566761%" y1="100%" x2="54.4566761%" y2="0%" id="linearGradient-2">
            <stop stop-color="#FEAA06" offset="0%"></stop>
            <stop stop-color="#FDD609" offset="100%"></stop>
        </linearGradient>
    </defs>
    <g id="Page-1" stroke="none" stroke-width="1" fill="none" fill-rule="evenodd">
        <g id="Group-28" transform="translate(4.000000, 4.000000)">
            <g id="Group-16" filter="url(#filter-1)">
                <rect id="Rectangle" fill="#191919" opacity="0.7" x="3.125" y="2.5" width="42.5" height="44.375" rx="8"></rect>
                <path d="M3.38069641,49.8295831 C1.65804826,49.3787064 0.629842211,48.3502848 0.154332892,46.6025416 C0.00880077815,46.0676365 0,44.8433993 0,25.1342189 C0,5.38543336 0.00856492603,4.19978057 0.1553654,3.6278998 C0.526364277,2.18262028 1.32396199,1.14376989 2.48955015,0.58768474 C3.80760972,-0.0411430288 2.20631621,0.000572365843 25.0265296,0.000572365843 C47.7807384,0.000572365843 46.2523441,-0.03800909 47.5228891,0.568450432 C48.611586,1.08811003 49.375863,2.07980124 49.8091443,3.53499136 C49.9565737,4.03013754 49.9663337,5.18305899 49.9886392,24.7383701 C50.014838,47.7061993 50.047182,46.3509687 49.4422877,47.6306064 C48.8918089,48.7951294 47.8421787,49.5834017 46.4493898,49.8782726 C45.9476459,49.984498 42.7530831,50.0025366 24.9391769,50 C4.62527844,49.9965412 3.99972175,49.9916044 3.38069641,49.8295831 Z M29.0232315,31.0903694 C29.0408156,21.8615406 29.0679072,19.4616946 29.1545068,19.4616946 C29.2145216,19.4616946 31.8774309,22.0732375 35.0720828,25.2651233 C38.2667347,28.4570091 40.9101329,31.068552 40.9463013,31.068552 C40.9824696,31.068552 41.0120621,28.761443 41.0120621,25.9416434 L41.0120621,20.8147347 L33.1723446,12.9821071 C28.8605005,8.67416171 25.2931543,5.14947904 25.2449094,5.14947904 C25.0865434,5.14947904 9.66336098,20.6318953 9.56908477,20.8855069 C9.43715696,21.2404053 9.44307772,30.9495669 9.57527196,31.0311901 C9.63307145,31.0668782 12.0255405,28.741076 15.4499814,25.3201808 C18.6274396,22.1460116 21.2565505,19.5489642 21.2924489,19.5489642 C21.3283474,19.5489642 21.3577188,24.6960888 21.3577188,30.9870195 C21.3577188,38.7452149 21.3869715,42.4796829 21.448645,42.5948116 C21.5368336,42.7594361 21.6519269,42.7638624 25.2703229,42.7417963 L29.0010745,42.7190442 L29.0232315,31.0903694 Z" id="path1310" fill="url(#linearGradient-2)" fill-rule="nonzero"></path>
            </g>
        </g>
    </g>
</svg>