<svg xmlns="http://www.w3.org/2000/svg" viewBox="0 0 14 14"><defs><style>.cls-1{fill:#58a40b;}</style></defs><title>4資產 1</title><g id="圖層_2" data-name="圖層 2"><g id="圖層_1-2" data-name="圖層 1"><g id="Page-1"><path id="Shape" class="cls-1" d="M7,0a7,7,0,1,0,7,7A7,7,0,0,0,7,0Zm4,4.8h0L6,10.09a.29.29,0,0,1-.22.09.27.27,0,0,1-.23-.09L3,7.41,3,7.35a.36.36,0,0,1-.1-.22A.39.39,0,0,1,3,6.9l.44-.44a.31.31,0,0,1,.45,0l0,0L5.63,8.37a.16.16,0,0,0,.22,0L10.12,4h0a.31.31,0,0,1,.45,0l.44.44a.26.26,0,0,1,0,.41Z"/></g></g></g></svg>