<svg xmlns="http://www.w3.org/2000/svg" viewBox="0 0 36 36"><defs><style>.cls-1{fill:#191919;fill-rule:evenodd;}</style></defs><title>ㄅ資產 1</title><g id="圖層_2" data-name="圖層 2"><g id="圖層_1-2" data-name="圖層 1"><g id="Page-1"><g id="login"><path id="ico-status" class="cls-1" d="M18,0A18,18,0,1,1,0,18,18,18,0,0,1,18,0Zm0,34A16,16,0,1,0,2,18,16,16,0,0,0,18,34Zm9.66-8.39a8,8,0,0,1,.11,1.11H8.23a16.52,16.52,0,0,1,.12-2c.08-.55.86-1.29,4.12-2.49s3-.6,3-2.78c0-1.41-.72-.59-1.17-3.26-.18-1.06-.33-.36-.71-2-.21-.89.14-1,.09-1.38s-.08-.8-.15-1.66C13.45,10,14.44,7.2,18,7.2s4.55,2.81,4.46,3.88c-.08.87-.12,1.24-.16,1.67s.3.49.1,1.37c-.39,1.69-.53,1-.71,2-.46,2.68-1.18,1.86-1.18,3.27,0,2.17-.19,1.6,3,2.78S27.57,25.07,27.66,25.63Z"/></g></g></g></g></svg>