<svg xmlns="http://www.w3.org/2000/svg" viewBox="0 0 16 11.23"><defs><style>.cls-1,.cls-2{fill:#191919;isolation:isolate;}.cls-1{opacity:0.7;}.cls-2{opacity:0.6;}</style></defs><title>14資產 1</title><g id="圖層_2" data-name="圖層 2"><g id="圖層_1-2" data-name="圖層 1"><g id="Page-1"><g id="Group-4"><rect id="Rectangle" class="cls-1" x="-0.01" y="4.61" width="16" height="2" transform="translate(-1.77 5.94) rotate(-37)"/><path id="Shape" class="cls-2" d="M15.82,5.13A9,9,0,0,0,8,.5,9,9,0,0,0,.18,5.13a1.47,1.47,0,0,0,0,1.41A9,9,0,0,0,8,11.17a9,9,0,0,0,7.82-4.63A1.47,1.47,0,0,0,15.82,5.13ZM7.62,9.64a3.81,3.81,0,1,1,3.81-3.81A3.8,3.8,0,0,1,7.62,9.64Zm3.05-3.81a3.05,3.05,0,0,1-6.1,0A3,3,0,0,1,4.93,4.4h0A1.26,1.26,0,1,0,6.18,3.14h0a3.16,3.16,0,0,1,1.44-.35A3,3,0,0,1,10.67,5.83Z"/></g></g></g></g></svg>