<svg xmlns="http://www.w3.org/2000/svg" viewBox="0 0 14 14"><defs><style>.cls-1{fill:#b50505;}</style></defs><title>5資產 1</title><g id="圖層_2" data-name="圖層 2"><g id="圖層_1-2" data-name="圖層 1"><g id="Page-1"><path id="Shape" class="cls-1" d="M7,0a7,7,0,1,0,7,7A7,7,0,0,0,7,0ZM8,7.13,10.4,9.51a.34.34,0,0,1,.1.23.32.32,0,0,1-.1.22L10,10.4a.32.32,0,0,1-.22.1.29.29,0,0,1-.23-.1L7.13,8A.15.15,0,0,0,6.9,8L4.52,10.4a.33.33,0,0,1-.22.1.29.29,0,0,1-.23-.1L3.63,10a.32.32,0,0,1-.1-.22.34.34,0,0,1,.1-.23L6,7.13A.15.15,0,0,0,6,6.9L3.63,4.52a.3.3,0,0,1,0-.45l.44-.44a.3.3,0,0,1,.45,0L6.9,6a.15.15,0,0,0,.23,0L9.51,3.63a.34.34,0,0,1,.23-.1.27.27,0,0,1,.22.1l.44.44a.3.3,0,0,1,0,.45L8,6.9a.15.15,0,0,0,0,.23Z"/></g></g></g></svg>