<svg xmlns="http://www.w3.org/2000/svg" viewBox="0 0 36 36"><defs><style>.cls-1,.cls-2{fill:#191919;}.cls-1{fill-rule:evenodd;}</style></defs><title>4資產 1</title><g id="圖層_2" data-name="圖層 2"><g id="圖層_1-2" data-name="圖層 1"><g id="Page-1"><g id="Registered-提示字元及輸入狀態"><g id="Group-4"><path id="ico-status" class="cls-1" d="M18,0A18,18,0,1,1,0,18,18,18,0,0,1,18,0Zm0,34A16,16,0,1,0,2,18,16,16,0,0,0,18,34Z"/><g id="Group-108"><path id="Path" class="cls-2" d="M13.28,8.5A4.52,4.52,0,0,0,8.9,13.14a4.53,4.53,0,0,0,4.38,4.65,4.52,4.52,0,0,0,4.38-4.65A4.52,4.52,0,0,0,13.28,8.5Z"/><path class="cls-2" d="M23.24,9.16h0a3.66,3.66,0,0,0-2.67,1.21A4.14,4.14,0,0,0,20.59,16a3.63,3.63,0,0,0,2.66,1.16h0a3.58,3.58,0,0,0,2.66-1.2A4,4,0,0,0,27,13.11,3.88,3.88,0,0,0,23.24,9.16Z"/><path class="cls-2" d="M23.43,17.89h-.37a6.59,6.59,0,0,0-4.41,1.69,8.39,8.39,0,0,1,.84.74A8.5,8.5,0,0,1,22,25.86h8v-1.4A6.57,6.57,0,0,0,23.43,17.89Z"/><path class="cls-2" d="M20.55,25.86a7.07,7.07,0,0,0-7-6.62h-.44A7.06,7.06,0,0,0,6,26.3v.84H20.56V26.3C20.56,26.16,20.56,26,20.55,25.86Z"/></g></g></g></g></g></g></svg>