<svg xmlns="http://www.w3.org/2000/svg" viewBox="0 0 18 18"><defs><style>.cls-1{fill:#191919;}</style></defs><title>4資產 1</title><g id="圖層_2" data-name="圖層 2"><g id="圖層_1-2" data-name="圖層 1"><g id="Page-1"><path id="Path" class="cls-1" d="M10.15,9l7.6-7.64a.79.79,0,0,0,0-1.15.78.78,0,0,0-1.14,0L9,7.89,1.39.25A.78.78,0,0,0,.25.25a.79.79,0,0,0,0,1.15L7.85,9,.25,16.68a.79.79,0,0,0,0,1.15A.94.94,0,0,0,.9,18c.16,0,.49,0,.49-.17L9,10.19l7.61,7.64a.94.94,0,0,0,.65.17c.17,0,.49,0,.49-.17a.79.79,0,0,0,0-1.15Z"/></g></g></g></svg>