<svg xmlns="http://www.w3.org/2000/svg" xmlns:xlink="http://www.w3.org/1999/xlink" viewBox="0 0 36 36"><defs><style>.cls-1{fill:#fff;}.cls-2,.cls-4{fill:#191919;}.cls-2{fill-rule:evenodd;}.cls-3{mask:url(#mask);}.cls-5{mask:url(#mask-2-2);}</style><mask id="mask" x="5" y="4.2" width="26" height="22.34" maskUnits="userSpaceOnUse"><g id="mask-2"><rect id="path-1" class="cls-1" x="5" y="10.52" width="26" height="16.02"/></g></mask><mask id="mask-2-2" x="5" y="10.52" width="26" height="16.02" maskUnits="userSpaceOnUse"><g id="mask-2-3" data-name="mask-2"><rect id="path-1-2" data-name="path-1" class="cls-1" x="5" y="10.52" width="26" height="16.02"/></g></mask></defs><title>2資產 1</title><g id="圖層_2" data-name="圖層 2"><g id="圖層_1-2" data-name="圖層 1"><g id="Page-1"><g id="Registered-提示字元及輸入狀態"><g id="Group-19"><path id="ico-status" class="cls-2" d="M18,0A18,18,0,1,1,0,18,18,18,0,0,1,18,0Zm0,34A16,16,0,1,0,2,18,16,16,0,0,0,18,34Z"/><g class="cls-3"><path id="Shape" class="cls-4" d="M29.55,10.51h-7V8.81a4.62,4.62,0,0,0-9.23,0v1.7h-7A1.4,1.4,0,0,0,5,11.91v13.2a1.4,1.4,0,0,0,1.4,1.4H29.55a1.4,1.4,0,0,0,1.4-1.4V11.91A1.4,1.4,0,0,0,29.55,10.51Zm-1.92,6.27a.65.65,0,0,1-.65.65H20.25a.65.65,0,0,1,0-1.3H27A.65.65,0,0,1,27.63,16.78Zm-3.39-4.11a.65.65,0,1,1,0,1.3h-4a.65.65,0,0,1,0-1.3ZM18,6.21a1.85,1.85,0,1,1-1.84,1.85A1.85,1.85,0,0,1,18,6.21Zm-.38,16.48a1.84,1.84,0,0,1-1.83,1.84h-7A1.84,1.84,0,0,1,7,22.69V14.32a1.83,1.83,0,0,1,1.83-1.83h7a1.83,1.83,0,0,1,1.83,1.83v8.37Zm11,1.66h-4a.65.65,0,0,1,0-1.3h4a.65.65,0,0,1,0,1.3Zm0-3.46H20.25a.65.65,0,0,1-.64-.65.65.65,0,0,1,.64-.65h8.32a.65.65,0,0,1,0,1.3Z"/></g><g class="cls-5"><path class="cls-4" d="M15.76,13.35h-7a1,1,0,0,0-1,1v8.37a1,1,0,0,0,1,1h7a1,1,0,0,0,1-1V14.32A1,1,0,0,0,15.76,13.35Zm-3.48.78c1.23,0,2.23,1.32,2.23,2.94S13.51,20,12.28,20,10,18.69,10,17.07,11,14.13,12.28,14.13Zm3.23,8.54a.34.34,0,0,1-.27.13H9.31A.37.37,0,0,1,9,22.67.34.34,0,0,1,9,22.38a3.31,3.31,0,0,1,1.23-2l.05-.05a2.86,2.86,0,0,0,4.07,0l0,.05a3.31,3.31,0,0,1,1.23,2A.34.34,0,0,1,15.51,22.67Z"/></g></g></g></g></g></g></svg>