<svg id="圖層_1" data-name="圖層 1" xmlns="http://www.w3.org/2000/svg" viewBox="0 0 30 30"><defs><style>.cls-1,.cls-2{fill:#191919;}.cls-1{stroke:#191919;stroke-width:0.5px;}</style></defs><title>13工作區域 1</title><g id="Page-1"><g id="Group-22"><path id="Path" class="cls-1" d="M21.62,8.6l5.89,1.55L29,4.26,27.87,4l-1,3.67a14,14,0,1,0,.19,14.43l-1-.55a12.85,12.85,0,1,1,.06-12.92L21.92,7.47Z"/><path id="Shape" class="cls-2" d="M15.44,22.83V21.56a4.4,4.4,0,0,0,2.81-1A3.19,3.19,0,0,0,19.31,18a2.75,2.75,0,0,0-.92-2.32,6.09,6.09,0,0,0-2.88-1.27h-.07V11.21a5.28,5.28,0,0,1,2.46,1L19,10.65a6.91,6.91,0,0,0-3.59-1.27V8.54H14.38v.84a4.35,4.35,0,0,0-2.68,1.06,3.21,3.21,0,0,0-1,2.46,2.72,2.72,0,0,0,.91,2.26,6.61,6.61,0,0,0,2.82,1.19v3.31a5.8,5.8,0,0,1-3-1.48l-1.27,1.48a7.23,7.23,0,0,0,4.23,1.9v1.27Zm.07-6.13a4.32,4.32,0,0,1,1.4.63,1.57,1.57,0,0,1,.35,1,1.14,1.14,0,0,1-.49,1,2.55,2.55,0,0,1-1.26.49V16.7Zm-2.47-3a1.33,1.33,0,0,1-.35-.91,1.31,1.31,0,0,1,.42-1,2.29,2.29,0,0,1,1.27-.49v3A3.41,3.41,0,0,1,13,13.67Z"/></g></g></svg>