<svg id="圖層_1" data-name="圖層 1" xmlns="http://www.w3.org/2000/svg" viewBox="0 0 30 30"><defs><style>.cls-1{fill:#191919;}</style></defs><title>12工作區域 1</title><g id="Page-1"><g id="Group-29"><path id="Path" class="cls-1" d="M9.08,22.46,7.66,23.72a12.25,12.25,0,0,0,1.47,1.41l1.19-1.46A10.89,10.89,0,0,1,9.08,22.46Z"/><path class="cls-1" d="M7.22,19.54l-1.74.75a13.43,13.43,0,0,0,.95,1.8l1.6-1A9.44,9.44,0,0,1,7.22,19.54Z"/><path class="cls-1" d="M23.6,4.22a12.75,12.75,0,0,0-19,9.35L1.34,10.34,0,11.67l5.39,5.39,5.39-5.39L9.45,10.34,6.53,13.25a10.85,10.85,0,1,1,8.65,12.68,11.09,11.09,0,0,1-3.43-1.27l-.95,1.63A12.76,12.76,0,1,0,23.6,4.22Z"/><polygon class="cls-1" points="15.79 6.75 15.79 17.15 19.94 20.26 21.08 18.75 17.68 16.2 17.68 6.75 15.79 6.75"/></g></g></svg>