<svg id="圖層_1" data-name="圖層 1" xmlns="http://www.w3.org/2000/svg" viewBox="0 0 30 30"><defs><style>.cls-1{fill:#191919;}</style></defs><title>11工作區域 1</title><g id="Page-1"><path id="Shape" class="cls-1" d="M30,15A15,15,0,1,0,4.87,26.05h0l.49.41.1.08c.26.21.53.42.8.61l.26.19c.3.2.59.39.9.57l.2.12c.34.19.68.37,1,.53l.07,0a14.92,14.92,0,0,0,3.63,1.15h.1c.4.07.8.13,1.2.16l.15,0c.4,0,.81.05,1.22.05s.81,0,1.21-.05h.15c.41,0,.8-.09,1.19-.16l.1,0a14.35,14.35,0,0,0,3.58-1.12l.13-.06c.33-.16.66-.33,1-.51l.24-.14c.3-.17.58-.35.87-.54l.29-.21.71-.54.15-.12.5-.42h0A15,15,0,0,0,30,15ZM1.09,15A13.91,13.91,0,1,1,24.22,25.4a4.09,4.09,0,0,0-.48-.29L19.12,22.8a1.21,1.21,0,0,1-.67-1.09V20.1c.1-.14.22-.29.33-.45a11,11,0,0,0,1.43-2.79,2,2,0,0,0,1.14-1.8V13.13a2,2,0,0,0-.49-1.29V9.29a4.41,4.41,0,0,0-1-3.2c-1-1.15-2.64-1.73-4.84-1.73s-3.83.58-4.84,1.73a4.41,4.41,0,0,0-1,3.2v2.55a2,2,0,0,0-.49,1.29v1.93a2,2,0,0,0,.73,1.54,10.43,10.43,0,0,0,1.69,3.49v1.57a1.21,1.21,0,0,1-.63,1.07L6.12,25.08l-.41.26A13.88,13.88,0,0,1,1.09,15ZM23.16,26.25c-.19.14-.39.28-.58.4l-.28.18q-.37.24-.78.45l-.18.09a13.23,13.23,0,0,1-1.9.81l-.07,0a9.49,9.49,0,0,1-1,.3h0c-.36.09-.71.16-1.07.22h0c-.34.05-.68.09-1,.12l-.18,0c-.34,0-.68,0-1,0s-.69,0-1,0l-.18,0c-.35,0-.69-.07-1-.12h0a14,14,0,0,1-2.12-.53l-.06,0q-.53-.18-1-.39h0c-.31-.13-.62-.28-.93-.44l-.12-.06c-.28-.15-.55-.31-.82-.48l-.23-.15c-.25-.16-.5-.33-.73-.51l-.08-.06.06,0L11,23.69a2.31,2.31,0,0,0,1.2-2v-2L12,19.55a8.94,8.94,0,0,1-1.64-3.39l-.05-.22-.19-.12a.91.91,0,0,1-.42-.76V13.13a.88.88,0,0,1,.31-.67l.18-.16V9.19A3.31,3.31,0,0,1,11,6.81a5.14,5.14,0,0,1,4-1.36A5.17,5.17,0,0,1,19,6.8a3.36,3.36,0,0,1,.77,2.39V12.3l.18.16a.88.88,0,0,1,.31.67v1.93a.92.92,0,0,1-.65.86l-.27.08-.09.27A10.09,10.09,0,0,1,17.89,19c-.14.2-.28.38-.4.52l-.13.15v2a2.27,2.27,0,0,0,1.27,2.06l4.62,2.31.09.05Z"/></g></svg>