<svg id="圖層_1" data-name="圖層 1" xmlns="http://www.w3.org/2000/svg" viewBox="0 0 16 19"><defs><style>.cls-1{opacity:0.8;}.cls-2{fill:#f8f8f8;fill-rule:evenodd;}</style></defs><title>5工作區域 1</title><g id="Page-1" class="cls-1"><g id="內頁--Profile"><path id="Fill-1" class="cls-2" d="M15.69,4.53,11,.2a.6.6,0,0,0-.37-.2H5.79c-1.48,0-2.5.77-2.5,1.88V3.29H2.37A2.16,2.16,0,0,0,0,5.31v11a2.24,2.24,0,0,0,2.37,2.1h8a2.12,2.12,0,0,0,2.23-2.1V15.08h1.2a2.12,2.12,0,0,0,2.09-2.23V5.09s.06,0,.06,0l0,0A.52.52,0,0,0,15.69,4.53ZM11,1.83,14,4.39H11Zm.55,14.44a1,1,0,0,1-1.13,1h-8a1.15,1.15,0,0,1-1.27-1v-11c0-.71.84-.92,1.27-.92H6.58V8.6c0,.3.38.44.68.44h4.25ZM10.89,8H7.67V5.24Zm2.92,6h-1.2V8.51a.5.5,0,0,0-.11-.4L7.72,3.7a.53.53,0,0,0-.47-.31s0-.05,0-.05,0,0,0,0H4.39V1.88c0-.56.82-.78,1.4-.78H9.87V5c0,.3.38.44.68.44H14.8v7.37A1,1,0,0,1,13.81,14Z"/></g></g></svg>