<svg id="圖層_1" data-name="圖層 1" xmlns="http://www.w3.org/2000/svg" viewBox="0 0 20 22"><defs><style>.cls-1{fill:#f8f8f8;}</style></defs><title>14工作區域 1</title><g id="Page-1"><g id="Group-39"><path id="Path" class="cls-1" d="M17.68,0a.78.78,0,0,0-.77.79V3.65a9.82,9.82,0,0,0-14.1.24A10.29,10.29,0,0,0,0,11a.77.77,0,0,0,.77.78A.78.78,0,0,0,1.54,11,8.55,8.55,0,0,1,10,2.36a8.38,8.38,0,0,1,6.23,2.8l-3.4,1.16a.79.79,0,0,0-.49,1,.77.77,0,0,0,1,.5l4.61-1.57a.79.79,0,0,0,.53-.75V.79A.77.77,0,0,0,17.68,0Z"/><path class="cls-1" d="M19.22,10.21a.77.77,0,0,0-.77.79A8.55,8.55,0,0,1,10,19.64a8.36,8.36,0,0,1-6.23-2.81l3.4-1.16a.79.79,0,0,0,.49-1,.76.76,0,0,0-1-.49L2.06,15.75a.78.78,0,0,0-.52.75v4.71a.77.77,0,1,0,1.54,0V18.34a9.83,9.83,0,0,0,14.1-.23A10.33,10.33,0,0,0,20,11,.78.78,0,0,0,19.22,10.21Z"/></g></g></svg>