<svg id="圖層_1" data-name="圖層 1" xmlns="http://www.w3.org/2000/svg" viewBox="0 0 30 30"><defs><style>.cls-1{fill:#191919;}</style></defs><title>7工作區域 1</title><g id="Page-1"><path id="Shape" class="cls-1" d="M20,3a7,7,0,0,0-7,7,7,7,0,0,0,1,3.62L3.24,24.35a.83.83,0,0,0,.59,1.41.82.82,0,0,0,.58-.24L5.9,24l2.72,2.73a.83.83,0,0,0,1.17,0,.82.82,0,0,0,0-1.17L7.07,22.86,8,22l1.89,1.9a.84.84,0,0,0,.59.24A.83.83,0,0,0,11,22.69l-1.89-1.9.89-.9,2.73,2.73a.83.83,0,0,0,1.17,0,.83.83,0,0,0,0-1.17L11.2,18.72,15,15A7,7,0,1,0,20,3Zm0,12.41A5.38,5.38,0,1,1,25.34,10,5.38,5.38,0,0,1,20,15.41Z"/></g></svg>