<svg id="圖層_1" data-name="圖層 1" xmlns="http://www.w3.org/2000/svg" viewBox="0 0 30 30"><defs><style>.cls-1{fill:#191919;}</style></defs><title>5工作區域 1</title><g id="Page-1"><g id="Group-21"><path id="Combined-Shape" class="cls-1" d="M26.25,3A3.75,3.75,0,0,1,30,6.75v5a3.75,3.75,0,0,1-3.75,3.75h-2.5V26.75A1.25,1.25,0,0,1,22.5,28H7.5a1.25,1.25,0,0,1-1.25-1.25V15.5H3.75A3.75,3.75,0,0,1,0,11.75v-5A3.75,3.75,0,0,1,3.75,3ZM22.5,26.57V9.43H7.5V26.57Zm5.89-14.11V6a1.49,1.49,0,0,0-1.34-1.61H3A1.49,1.49,0,0,0,1.61,6v6.42A1.49,1.49,0,0,0,3,14.07H5.62V10.86H4.29A1.49,1.49,0,0,1,3,9.25,1.49,1.49,0,0,1,4.29,7.64H25.71a1.49,1.49,0,0,1,1.34,1.61,1.49,1.49,0,0,1-1.34,1.61H24.37v3.21h2.68A1.49,1.49,0,0,0,28.39,12.46Z"/><path id="Shape" class="cls-1" d="M15.63,17.26V15a5.17,5.17,0,0,1,1.41.6h.28a.78.78,0,0,0,.79-.76.67.67,0,0,0-.16-.4,3.78,3.78,0,0,0-2.32-1v-.81a.54.54,0,0,0-.54-.52h0a.54.54,0,0,0-.56.52v.8A2.75,2.75,0,0,0,11.68,16c0,1.77,1.46,2.26,2.84,2.62v2.58a3.69,3.69,0,0,1-1.76-.75.75.75,0,0,0-.45-.16.78.78,0,0,0-.74.77.67.67,0,0,0,.16.42,4.13,4.13,0,0,0,2.79,1.13v.79a.56.56,0,0,0,1.11,0v-.77c2-.18,2.84-1.36,2.91-2.69C18.54,18.16,17,17.63,15.63,17.26Zm-1.11-.34c-.7-.2-1.21-.38-1.21-1s.48-1,1.21-1.1Zm1.11,4.32V19h0c.72.21,1.26.61,1.26,1.12S16.54,21.1,15.63,21.24Z"/></g></g></svg>