<svg id="圖層_1" data-name="圖層 1" xmlns="http://www.w3.org/2000/svg" viewBox="0 0 46 46"><defs><style>.cls-1{fill:#fdd609;}</style></defs><title>02工作區域 1</title><g id="Page-1"><g id="Group-103"><path id="Path" class="cls-1" d="M37.64,24.48a5.28,5.28,0,0,1-.35,2L40.15,28a4.57,4.57,0,0,0,.7-3.94Z"/><path id="Shape" class="cls-1" d="M17,36.1,16.85,36l-2.14,2.75.08.09a4.67,4.67,0,0,0,3.39,1.43,3.68,3.68,0,0,0,.49,0h.11l.11-3.36v-.13h-.13A5.29,5.29,0,0,1,17,36.1ZM18.52,40h-.34a4.37,4.37,0,0,1-3.1-1.26l1.84-2.37a5.54,5.54,0,0,0,1.69.62Z"/><path class="cls-1" d="M10.8,14.42,8.64,12a4.53,4.53,0,0,0-2,3.47l3.17.66A5.26,5.26,0,0,1,10.8,14.42Z"/><path class="cls-1" d="M33.22,12.3l.07.1,3-1.85,0-.11A4.72,4.72,0,0,0,33,7.79l-.12,0-1.25,3.11-.08.14.15,0A5.18,5.18,0,0,1,33.22,12.3Zm-.13-4.21a4.41,4.41,0,0,1,2.8,2.35L33.35,12A5.66,5.66,0,0,0,32,10.87Z"/><path class="cls-1" d="M31.58,34.78l1.22,3a4.55,4.55,0,0,0,3.06-2.57L33.11,33.5A5.19,5.19,0,0,1,31.58,34.78Z"/><path class="cls-1" d="M10.89,30.86l-.13-.09a5.13,5.13,0,0,1-1-1.67l0-.12-3.41.73v.12A4.69,4.69,0,0,0,8.43,33.4l.1.06L10.77,31ZM8.48,33.1a4.42,4.42,0,0,1-1.83-3.17l2.93-.62a5.51,5.51,0,0,0,.9,1.56Z"/><path class="cls-1" d="M19,8.54,18.9,5.3a4.53,4.53,0,0,0-3.75,1.37l2,2.55A5.25,5.25,0,0,1,19,8.54Z"/><path class="cls-1" d="M40.31,17.75l-.07-.09-3,1.58-.14.06.08.13a5.14,5.14,0,0,1,.33,1.9v.12l3.45.48,0-.12A4.72,4.72,0,0,0,40.31,17.75Zm.48,3.87-3-.41a5.71,5.71,0,0,0-.3-1.78L40.16,18A4.4,4.4,0,0,1,40.79,21.62Z"/><path class="cls-1" d="M21.85,37.49l-1,3.08a4.53,4.53,0,0,0,4,0l-1-3.08A5.24,5.24,0,0,1,21.85,37.49Z"/><path class="cls-1" d="M5,21.66l3.33-.47h.15l0-.15a5.36,5.36,0,0,1,.34-1.9l0-.12L5.78,17.39l-.07.1A4.72,4.72,0,0,0,5,21.55Zm.84-3.91,2.64,1.41a5.64,5.64,0,0,0-.31,1.77l-3,.43A4.43,4.43,0,0,1,5.87,17.75Z"/><path class="cls-1" d="M27.33,5.4l-.11,3.23a5.3,5.3,0,0,1,1.87.69l2-2.56A4.49,4.49,0,0,0,27.33,5.4Z"/><path class="cls-1" d="M36.05,29.2v.16a5.4,5.4,0,0,1-1,1.66l-.08.09,2.33,2.59.1-.07a4.71,4.71,0,0,0,2.06-3.57v-.12l-3.29-.69Zm3.15,1a4.47,4.47,0,0,1-1.84,3.17l-2-2.22a5.79,5.79,0,0,0,.9-1.56Z"/><path class="cls-1" d="M12.66,33.31,9.91,35A4.52,4.52,0,0,0,13,37.6l1.21-3A5.43,5.43,0,0,1,12.66,33.31Z"/><path class="cls-1" d="M13.14,7.62A4.68,4.68,0,0,0,10,10.27l-.05.11,2.86,1.77.12.11.06-.15a5.35,5.35,0,0,1,1.48-1.23l.11-.06L13.26,7.59Zm-.3,4.23-2.55-1.58a4.47,4.47,0,0,1,2.8-2.35l1.13,2.78A5.54,5.54,0,0,0,12.84,11.85Z"/><path class="cls-1" d="M36.31,16.39l3.17-.68a4.55,4.55,0,0,0-2-3.46l-2.16,2.41A5.61,5.61,0,0,1,36.31,16.39Z"/><path class="cls-1" d="M28.86,36.09l-.11.11a5.22,5.22,0,0,1-1.81.65l-.12,0,.12,3.48.12,0,.51,0A4.61,4.61,0,0,0,30.93,39l.08-.08-2.07-2.64Zm-1.29,4-.36,0-.11-3a5.46,5.46,0,0,0,1.7-.62l1.85,2.36A4.44,4.44,0,0,1,27.57,40.12Z"/><path class="cls-1" d="M8.29,24.2l-3.21-.44a4.51,4.51,0,0,0,.7,3.93l2.85-1.53A5.35,5.35,0,0,1,8.29,24.2Z"/><path class="cls-1" d="M22,8.24l.14-.07a4.85,4.85,0,0,1,.93-.08,5.55,5.55,0,0,1,1,.09l.12,0,1.07-3.31-.11-.06a4.62,4.62,0,0,0-4.12,0l-.1,0,1,3.19Zm1.11-3.61A4.34,4.34,0,0,1,25,5L24,7.89a5.84,5.84,0,0,0-.93-.08,5.38,5.38,0,0,0-.87.07L21.29,5A4.61,4.61,0,0,1,23.14,4.63Z"/><path class="cls-1" d="M25.23,26.52l-.71-1.94a2.63,2.63,0,0,0,1.19-2.66l2-.73a1.53,1.53,0,0,0,2.66-1.46,1.53,1.53,0,0,0-3,.52l-2,.74a2.62,2.62,0,0,0-2.62-1.23l-.69-1.87a1.53,1.53,0,1,0-.92.37l.67,1.83a2.6,2.6,0,0,0-1.27,2.68l-1.78.65A1.52,1.52,0,0,0,17.06,23a1.53,1.53,0,1,0,2.07,1.35l1.73-.64a2.63,2.63,0,0,0,2.73,1.24l.69,1.89a1.54,1.54,0,1,0,.95-.31Z"/><path class="cls-1" d="M22.85,0A22.86,22.86,0,1,0,45.71,22.85,22.88,22.88,0,0,0,22.85,0Zm0,42.39A19.54,19.54,0,1,1,42.39,22.85,19.55,19.55,0,0,1,22.85,42.39Z"/></g></g></svg>