<svg id="圖層_1" data-name="圖層 1" xmlns="http://www.w3.org/2000/svg" viewBox="0 0 46 46"><defs><style>.cls-1{fill:#fdd609;fill-rule:evenodd;}</style></defs><title>4工作區域 1</title><g id="圖層_1-2" data-name="圖層 1-2"><g id="Page-1"><path id="Combined-Shape" class="cls-1" d="M17.15,34a.83.83,0,1,1-.86-.8h0a.81.81,0,0,1,.82.8Zm6.6-4a.83.83,0,1,1-.86-.8h0a.81.81,0,0,1,.83.79ZM18,27.59a.83.83,0,1,1-.86-.8h0a.81.81,0,0,1,.83.79Zm5.77,8.81a.83.83,0,1,1-.73-.73A.83.83,0,0,1,23.77,36.4ZM13.86,19.59a.83.83,0,1,1-.86-.8h0A.82.82,0,0,1,13.86,19.59Zm-2.48,9.6a.82.82,0,0,1-1.64,0h0a.82.82,0,0,1,1.64,0Zm23.08-14.4a.83.83,0,1,1-.86-.8h0a.81.81,0,0,1,.82.8ZM46,28.39a1.65,1.65,0,1,1-1.7-1.6h.05A1.63,1.63,0,0,1,46,28.38ZM30.34,34a.83.83,0,1,1-.86-.8h0a.81.81,0,0,1,.82.8ZM22.92,10.79a.83.83,0,1,1-.86-.8h0a.81.81,0,0,1,.82.8ZM10.31,5.25A.8.8,0,0,1,9.8,3.78,25.24,25.24,0,0,1,21.5,0a.82.82,0,0,1,.88.74.81.81,0,0,1-.76.86h0A23.53,23.53,0,0,0,10.7,5.13.78.78,0,0,1,10.31,5.25ZM4.05,10.44A.81.81,0,0,1,4.4,11a.71.71,0,0,1-.12.6,22.34,22.34,0,0,0-2.67,5.3.86.86,0,0,1-.73.55,1.71,1.71,0,0,1-.32,0,.8.8,0,0,1-.52-1,23.66,23.66,0,0,1,2.87-5.73A.84.84,0,0,1,4.05,10.44Zm37.18,25.2h0a.83.83,0,0,1,1.14-.13.78.78,0,0,1,.18,1.09l0,0a24.08,24.08,0,0,1-3.41,3.51.82.82,0,0,1-.82.17A.79.79,0,0,1,38,38.92,22.49,22.49,0,0,0,41.23,35.64ZM39.41,44.4a.8.8,0,1,1,0,1.6H31.16a.8.8,0,0,1,0-1.6h3.1l-4.77-5.15A19.39,19.39,0,0,1,15.74,39l-5,5.38h3.1a.8.8,0,0,1,0,1.6H5.62a.8.8,0,0,1,0-1.6H8.55l5.64-6.08A18.16,18.16,0,0,1,5.64,14.43,19.16,19.16,0,0,1,29.71,4.8,18.27,18.27,0,0,1,41,27.59H35.14a.83.83,0,0,1-.58-.23l-5.63-5.47a2.51,2.51,0,0,0-1.74-.7H22.92a.8.8,0,0,0,0,1.6h4.27a.84.84,0,0,1,.58.24l5.63,5.46a2.45,2.45,0,0,0,1.74.7h5.23A18.84,18.84,0,0,1,31.1,38.6l5.38,5.8Zm-5.77-32a2.4,2.4,0,1,0,2.47,2.4,2.44,2.44,0,0,0-2.47-2.41h0ZM22.1,8.4a2.4,2.4,0,1,0,2.47,2.4,2.43,2.43,0,0,0-2.45-2.41h0ZM10.56,31.59a2.4,2.4,0,1,0-2.47-2.4,2.43,2.43,0,0,0,2.46,2.4Zm0-12a2.47,2.47,0,1,0,2.54-2.4H13A2.44,2.44,0,0,0,10.56,19.59ZM16.33,36.4A2.44,2.44,0,0,0,18.8,34a2.4,2.4,0,0,0-1.52-2.22,2.54,2.54,0,0,0-2.7.52,2.32,2.32,0,0,0-.53,2.61A2.46,2.46,0,0,0,16.33,36.4Zm.82-6.4a2.4,2.4,0,1,0-2.47-2.4A2.44,2.44,0,0,0,17.15,30Zm5.77,8.81a2.4,2.4,0,1,0-2.47-2.4,2.44,2.44,0,0,0,2.47,2.39Zm0-6.4A2.41,2.41,0,1,0,20.45,30a2.45,2.45,0,0,0,2.47,2.4ZM25.65,25h0a.79.79,0,0,0,.26-.76.81.81,0,0,0-.55-.6.83.83,0,0,0-.8.16,2.53,2.53,0,0,1-3.31,0,2.36,2.36,0,0,1-.33-3.19A2.52,2.52,0,0,1,24.15,20a.84.84,0,0,0,1.1-.31A.77.77,0,0,0,25,18.56l0,0a4.2,4.2,0,0,0-5.39,1.09,3.94,3.94,0,0,0,.54,5.32A4.22,4.22,0,0,0,25.65,25ZM27,34a2.48,2.48,0,1,0,2.55-2.41h-.07A2.44,2.44,0,0,0,27,34Z"/></g></g></svg>