<svg id="圖層_1" data-name="圖層 1" xmlns="http://www.w3.org/2000/svg" viewBox="0 0 47 47"><defs><style>.cls-1{fill:#fdd609;fill-rule:evenodd;}</style></defs><title>4工作區域 1</title><g id="Page-1"><path id="Combined-Shape" class="cls-1" d="M3.38,43.43V25H20.62V46.5H6.25A3,3,0,0,1,3.38,43.43ZM29.74,4.48c-1.94,2.08-3.87,7.39-3.2,8.13a.94.94,0,0,0,.53.1c2,0,5.79-2.2,7-3.54a3.48,3.48,0,0,0,0-4.69A3,3,0,0,0,29.74,4.48ZM12.91,9.17c1.23,1.34,5,3.54,7,3.54a1,1,0,0,0,.54-.1c.67-.74-1.26-6-3.2-8.13a2.92,2.92,0,0,0-4.35,0A3.48,3.48,0,0,0,12.91,9.17Zm30.71,3.54a3,3,0,0,1,2.88,3.06v4.6a1.49,1.49,0,0,1-1.44,1.54H26.38V15.77H20.62v6.14H1.94A1.49,1.49,0,0,1,.5,20.37v-4.6a3,3,0,0,1,2.88-3.06h9.09a12.74,12.74,0,0,1-1.61-1.37,6.74,6.74,0,0,1,0-9,5.82,5.82,0,0,1,8.43,0c1.24,1.34,4.55,6.77,4.1,10.4h.2c-.45-3.63,2.85-9.06,4.1-10.4a5.81,5.81,0,0,1,8.43,0,6.73,6.73,0,0,1,0,9,11.91,11.91,0,0,1-1.6,1.37ZM26.38,46.5V25H43.62v18.4a3,3,0,0,1-2.87,3.07Z"/></g></svg>