<svg id="圖層_1" data-name="圖層 1" xmlns="http://www.w3.org/2000/svg" xmlns:xlink="http://www.w3.org/1999/xlink" viewBox="0 0 46 46"><defs><style>.cls-1{fill:url(#未命名漸層);}.cls-2{fill:url(#未命名漸層_2);}.cls-3{fill:url(#未命名漸層_3);}.cls-4{fill:url(#未命名漸層_4);}.cls-5{fill:url(#未命名漸層_5);}.cls-6{fill:url(#未命名漸層_6);}.cls-7{fill:url(#未命名漸層_7);}.cls-8{fill:url(#未命名漸層_8);}.cls-9{fill:url(#未命名漸層_9);}.cls-10{fill:url(#未命名漸層_10);}.cls-11{fill:url(#未命名漸層_11);}.cls-12{fill:url(#未命名漸層_12);}.cls-13{fill:url(#未命名漸層_13);}.cls-14{fill:url(#未命名漸層_14);}.cls-15{fill:url(#未命名漸層_15);}.cls-16{fill:url(#未命名漸層_16);}.cls-17{fill:url(#未命名漸層_17);}.cls-18{fill:url(#未命名漸層_18);}.cls-19{fill:url(#未命名漸層_19);}.cls-20{fill:url(#未命名漸層_20);}</style><linearGradient id="未命名漸層" x1="-205.99" y1="324.55" x2="-205.99" y2="325.55" gradientTransform="matrix(3.73, 0, 0, -3.94, 808.5, 1306.24)" gradientUnits="userSpaceOnUse"><stop offset="0" stop-color="#ccc"/><stop offset="0.64" stop-color="#f0f0f0"/><stop offset="1" stop-color="#fff"/><stop offset="1" stop-color="#fbfbfa"/><stop offset="1" stop-color="#f0eeeb"/></linearGradient><linearGradient id="未命名漸層_2" x1="-214.08" y1="331.86" x2="-214.08" y2="332.86" gradientTransform="matrix(4.18, 0, 0, -4.27, 912.21, 1457.02)" xlink:href="#未命名漸層"/><linearGradient id="未命名漸層_3" x1="-213.83" y1="328.9" x2="-213.83" y2="329.9" gradientTransform="matrix(4.17, 0, 0, -4.13, 899.87, 1374.1)" xlink:href="#未命名漸層"/><linearGradient id="未命名漸層_4" x1="-220.94" y1="338.67" x2="-220.94" y2="339.67" gradientTransform="matrix(4.66, 0, 0, -4.63, 1062.77, 1580.73)" xlink:href="#未命名漸層"/><linearGradient id="未命名漸層_5" x1="-215.57" y1="332.1" x2="-215.57" y2="333.1" gradientTransform="matrix(4.28, 0, 0, -4.28, 955.82, 1459.44)" xlink:href="#未命名漸層"/><linearGradient id="未命名漸層_6" x1="-219.29" y1="335.94" x2="-219.29" y2="336.94" gradientTransform="matrix(4.53, 0, 0, -4.48, 1002.73, 1538.09)" xlink:href="#未命名漸層"/><linearGradient id="未命名漸層_7" x1="-208.68" y1="324.63" x2="-208.68" y2="325.63" gradientTransform="matrix(3.87, 0, 0, -3.94, 825.17, 1288.82)" xlink:href="#未命名漸層"/><linearGradient id="未命名漸層_8" x1="-212.38" y1="331.87" x2="-212.38" y2="332.87" gradientTransform="matrix(4.08, 0, 0, -4.27, 905.71, 1438.89)" xlink:href="#未命名漸層"/><linearGradient id="未命名漸層_9" x1="-210.99" y1="314.13" x2="-210.99" y2="315.13" gradientTransform="matrix(4, 0, 0, -3.55, 866.63, 1155.35)" xlink:href="#未命名漸層"/><linearGradient id="未命名漸層_10" x1="-211.7" y1="331.91" x2="-211.7" y2="332.91" gradientTransform="matrix(4.04, 0, 0, -4.27, 862.05, 1439.32)" xlink:href="#未命名漸層"/><linearGradient id="未命名漸層_11" x1="-208.49" y1="324.83" x2="-208.49" y2="325.83" gradientTransform="matrix(3.86, 0, 0, -3.95, 834.4, 1292.54)" xlink:href="#未命名漸層"/><linearGradient id="未命名漸層_12" x1="-218.8" y1="336.35" x2="-218.8" y2="337.35" gradientTransform="matrix(4.5, 0, 0, -4.5, 1021.24, 1547.5)" xlink:href="#未命名漸層"/><linearGradient id="未命名漸層_13" x1="-215.43" y1="332.25" x2="-215.43" y2="333.25" gradientTransform="matrix(4.27, 0, 0, -4.29, 931.61, 1462.32)" xlink:href="#未命名漸層"/><linearGradient id="未命名漸層_14" x1="-220.55" y1="339.26" x2="-220.55" y2="340.26" gradientTransform="matrix(4.63, 0, 0, -4.67, 1032.73, 1594.92)" xlink:href="#未命名漸層"/><linearGradient id="未命名漸層_15" x1="-213.73" y1="329.11" x2="-213.73" y2="330.11" gradientTransform="matrix(4.16, 0, 0, -4.14, 926.81, 1378.34)" xlink:href="#未命名漸層"/><linearGradient id="未命名漸層_16" x1="-214.33" y1="332.64" x2="-214.33" y2="333.64" gradientTransform="matrix(4.2, 0, 0, -4.31, 928.75, 1473.33)" xlink:href="#未命名漸層"/><linearGradient id="未命名漸層_17" x1="-205.98" y1="324.55" x2="-205.98" y2="325.55" gradientTransform="matrix(3.73, 0, 0, -3.94, 775.9, 1305.97)" xlink:href="#未命名漸層"/><linearGradient id="未命名漸層_18" x1="-216.47" y1="323.27" x2="-216.47" y2="324.27" gradientTransform="matrix(4.34, 0, 0, -3.89, 961.8, 1264.42)" xlink:href="#未命名漸層"/><linearGradient id="未命名漸層_19" x1="-261.92" y1="393.17" x2="-261.92" y2="394.17" gradientTransform="matrix(14.4, 0, 0, -14.4, 3795.15, 5691.82)" xlink:href="#未命名漸層"/><linearGradient id="未命名漸層_20" x1="-275.33" y1="410.86" x2="-275.33" y2="411.86" gradientTransform="matrix(45.71, 0, 0, -45.71, 12607.42, 18825.01)" xlink:href="#未命名漸層"/></defs><title>2工作區域 1</title><g id="Page-1"><g id="Group-107"><path id="Path" class="cls-1" d="M37.64,24.48a5.28,5.28,0,0,1-.35,2L40.15,28a4.57,4.57,0,0,0,.7-3.94Z"/><path id="Shape" class="cls-2" d="M17,36.1,16.85,36l-2.14,2.75.08.09a4.67,4.67,0,0,0,3.39,1.43,3.68,3.68,0,0,0,.49,0h.11l.11-3.36v-.13h-.13A5.29,5.29,0,0,1,17,36.1ZM18.52,40h-.34a4.37,4.37,0,0,1-3.1-1.26l1.84-2.37a5.54,5.54,0,0,0,1.69.62Z"/><path class="cls-3" d="M10.8,14.42,8.64,12a4.53,4.53,0,0,0-2,3.47l3.17.66A5.26,5.26,0,0,1,10.8,14.42Z"/><path class="cls-4" d="M33.22,12.3l.07.1,3-1.85,0-.11A4.72,4.72,0,0,0,33,7.79l-.12,0-1.25,3.11-.08.14.15,0A5.18,5.18,0,0,1,33.22,12.3Zm-.13-4.21a4.41,4.41,0,0,1,2.8,2.35L33.35,12A5.66,5.66,0,0,0,32,10.87Z"/><path class="cls-5" d="M31.58,34.78l1.22,3a4.55,4.55,0,0,0,3.06-2.57L33.11,33.5A5.19,5.19,0,0,1,31.58,34.78Z"/><path class="cls-6" d="M10.89,30.86l-.13-.09a5.13,5.13,0,0,1-1-1.67l0-.12-3.41.73v.12A4.69,4.69,0,0,0,8.43,33.4l.1.06L10.77,31ZM8.48,33.1a4.42,4.42,0,0,1-1.83-3.17l2.93-.62a5.51,5.51,0,0,0,.9,1.56Z"/><path class="cls-7" d="M19,8.54,18.9,5.3a4.53,4.53,0,0,0-3.75,1.37l2,2.55A5.25,5.25,0,0,1,19,8.54Z"/><path class="cls-8" d="M40.31,17.75l-.07-.09-3,1.58-.14.06.08.13a5.14,5.14,0,0,1,.33,1.9v.12l3.45.48,0-.12A4.72,4.72,0,0,0,40.31,17.75Zm.48,3.87-3-.41a5.71,5.71,0,0,0-.3-1.78L40.16,18A4.4,4.4,0,0,1,40.79,21.62Z"/><path class="cls-9" d="M21.85,37.49l-1,3.08a4.53,4.53,0,0,0,4,0l-1-3.08A5.24,5.24,0,0,1,21.85,37.49Z"/><path class="cls-10" d="M5,21.66l3.33-.47h.15l0-.15a5.36,5.36,0,0,1,.34-1.9l0-.12L5.78,17.39l-.07.1A4.72,4.72,0,0,0,5,21.55Zm.84-3.91,2.64,1.41a5.64,5.64,0,0,0-.31,1.77l-3,.43A4.43,4.43,0,0,1,5.87,17.75Z"/><path class="cls-11" d="M27.33,5.4l-.11,3.23a5.3,5.3,0,0,1,1.87.69l2-2.56A4.49,4.49,0,0,0,27.33,5.4Z"/><path class="cls-12" d="M36.05,29.2v.16a5.4,5.4,0,0,1-1,1.66l-.08.09,2.33,2.59.1-.07a4.71,4.71,0,0,0,2.06-3.57v-.12l-3.29-.69Zm3.15,1a4.47,4.47,0,0,1-1.84,3.17l-2-2.22a5.79,5.79,0,0,0,.9-1.56Z"/><path class="cls-13" d="M12.66,33.31,9.91,35A4.52,4.52,0,0,0,13,37.6l1.21-3A5.43,5.43,0,0,1,12.66,33.31Z"/><path class="cls-14" d="M13.14,7.62A4.68,4.68,0,0,0,10,10.27l-.05.11,2.86,1.77.12.11.06-.15a5.35,5.35,0,0,1,1.48-1.23l.11-.06L13.26,7.59Zm-.3,4.23-2.55-1.58a4.47,4.47,0,0,1,2.8-2.35l1.13,2.78A5.54,5.54,0,0,0,12.84,11.85Z"/><path class="cls-15" d="M36.31,16.39l3.17-.68a4.55,4.55,0,0,0-2-3.46l-2.16,2.41A5.61,5.61,0,0,1,36.31,16.39Z"/><path class="cls-16" d="M28.86,36.09l-.11.11a5.22,5.22,0,0,1-1.81.65l-.12,0,.12,3.48.12,0,.51,0A4.61,4.61,0,0,0,30.93,39l.08-.08-2.07-2.64Zm-1.29,4-.36,0-.11-3a5.46,5.46,0,0,0,1.7-.62l1.85,2.36A4.44,4.44,0,0,1,27.57,40.12Z"/><path class="cls-17" d="M8.29,24.2l-3.21-.44a4.51,4.51,0,0,0,.7,3.93l2.85-1.53A5.35,5.35,0,0,1,8.29,24.2Z"/><path class="cls-18" d="M22,8.24l.14-.07a4.85,4.85,0,0,1,.93-.08,5.55,5.55,0,0,1,1,.09l.12,0,1.07-3.31-.11-.06a4.62,4.62,0,0,0-4.12,0l-.1,0,1,3.19Zm1.11-3.61A4.34,4.34,0,0,1,25,5L24,7.89a5.84,5.84,0,0,0-.93-.08,5.38,5.38,0,0,0-.87.07L21.29,5A4.61,4.61,0,0,1,23.14,4.63Z"/><path class="cls-19" d="M25.23,26.52l-.71-1.94a2.63,2.63,0,0,0,1.19-2.66l2-.73a1.53,1.53,0,0,0,2.66-1.46,1.53,1.53,0,0,0-3,.52l-2,.74a2.62,2.62,0,0,0-2.62-1.23l-.69-1.87a1.53,1.53,0,1,0-.92.37l.67,1.83a2.6,2.6,0,0,0-1.27,2.68l-1.78.65A1.52,1.52,0,0,0,17.06,23a1.53,1.53,0,1,0,2.07,1.35l1.73-.64a2.63,2.63,0,0,0,2.73,1.24l.69,1.89a1.54,1.54,0,1,0,.95-.31Z"/><path class="cls-20" d="M22.85,0A22.86,22.86,0,1,0,45.71,22.85,22.88,22.88,0,0,0,22.85,0Zm0,42.39A19.54,19.54,0,1,1,42.39,22.85,19.55,19.55,0,0,1,22.85,42.39Z"/></g></g></svg>