<svg xmlns="http://www.w3.org/2000/svg" xmlns:xlink="http://www.w3.org/1999/xlink" viewBox="0 0 57.89 52"><defs><style>.cls-1{fill:url(#未命名漸層);}.cls-2{fill:url(#未命名漸層-2);}.cls-3{fill:url(#未命名漸層-3);}</style><linearGradient id="未命名漸層" x1="-975.14" y1="172.03" x2="-975.14" y2="171.02" gradientTransform="translate(40282.59 -7073.3) scale(41.28 41.4)" gradientUnits="userSpaceOnUse"><stop offset="0" stop-color="#ccc"/><stop offset="0.64" stop-color="#f0f0f0"/><stop offset="1" stop-color="#fff"/><stop offset="1" stop-color="#fbfbfa"/><stop offset="1" stop-color="#f0eeeb"/></linearGradient><linearGradient id="未命名漸層-2" x1="-982" y1="203.31" x2="-982" y2="202.31" gradientTransform="translate(56572.27 -5508.12) scale(57.58 27.25)" xlink:href="#未命名漸層"/><linearGradient id="未命名漸層-3" x1="-823.16" y1="325.55" x2="-823.16" y2="324.54" gradientTransform="translate(4715.55 -3779.42) scale(5.67 11.67)" xlink:href="#未命名漸層"/></defs><title>18資產 1</title><g id="圖層_2" data-name="圖層 2"><g id="圖層_1-2" data-name="圖層 1"><g id="圖層_1-2-2" data-name="圖層 1-2"><g id="Page-1"><g id="Group-124"><path id="Path" class="cls-1" d="M7.87,50.7A1.21,1.21,0,0,0,9,52H23.64V40s-.2-2,1.71-2h6a1.89,1.89,0,0,1,2.12,1.63,2.38,2.38,0,0,1,0,.38V52H47.85a1.5,1.5,0,0,0,1.53-1.46.74.74,0,0,0,0-.21v-22L29.27,10.36,7.87,28.27Z"/><path class="cls-2" d="M0,25.93s1.82,3.34,5.77,0l23.65-20L51.6,25.8c4.58,3.31,6.29,0,6.29,0L29.42,0Z"/><polygon class="cls-3" points="51.05 5.86 45.35 5.86 45.37 12.78 51.05 17.6 51.05 5.86"/></g></g></g></g></g></svg>