<svg id="圖層_1" data-name="圖層 1" xmlns="http://www.w3.org/2000/svg" xmlns:xlink="http://www.w3.org/1999/xlink" viewBox="0 0 46 47"><defs><style>.cls-1,.cls-2,.cls-3{fill-rule:evenodd;}.cls-1{fill:url(#未命名漸層);}.cls-2{fill:url(#未命名漸層_2);}.cls-3{fill:url(#未命名漸層_3);}</style><linearGradient id="未命名漸層" x1="-549.49" y1="27.73" x2="-549.49" y2="26.73" gradientTransform="matrix(46.18, 5.67, -3.05, 24.87, 25481.11, 2450.19)" gradientUnits="userSpaceOnUse"><stop offset="0" stop-color="#ccc"/><stop offset="0.64" stop-color="#f0f0f0"/><stop offset="1" stop-color="#fff"/><stop offset="1" stop-color="#fbfbfa"/><stop offset="1" stop-color="#f0eeeb"/></linearGradient><linearGradient id="未命名漸層_2" x1="-522.9" y1="72.53" x2="-522.9" y2="71.53" gradientTransform="matrix(17.36, 4.33, -1.98, 7.94, 9230.56, 1734.51)" xlink:href="#未命名漸層"/><linearGradient id="未命名漸層_3" x1="-535.97" y1="65.01" x2="-535.97" y2="64.01" gradientTransform="matrix(23.14, 2.43, -1.11, 10.58, 12506.87, 658.41)" xlink:href="#未命名漸層"/></defs><title>1工作區域 1</title><g id="Page-1"><path id="Combined-Shape" class="cls-1" d="M39.78,17.5l-.57,1.41-.16-1.18c-.92.58-1.57,2.23-1.56,4.27l1.83.26a14.19,14.19,0,0,1-5.76,1.92,28.38,28.38,0,0,1-5.53,0,8.68,8.68,0,0,0-.79-3.62h0a3.45,3.45,0,0,1,.06,1.91A3.22,3.22,0,0,1,24.42,25l-5.81.39,3.06-5.33-2,2.05-.52-.22A30.12,30.12,0,0,1,8.8,14.37,13.53,13.53,0,0,1,.91,21h0c-.41.12-.67-.45-.34-.75a14.44,14.44,0,0,0,3.92-6.14,14.14,14.14,0,0,0-4.12-9c-.28-.28,0-.79.33-.69h0A12.39,12.39,0,0,1,5,6.48a13.47,13.47,0,0,1,4,5.27A29.61,29.61,0,0,1,24.82,7.23L25.27,1h.09a7,7,0,0,1,4.93,6.8c.59.11,1.17.25,1.75.41A29.48,29.48,0,0,1,45.68,16.3l-1.62,1.75-.51,1.25-.2-1.3-.49-.07-.65,1.63L42,17.8l-.52-.07-.74,1.79-.29-1.94L40,17.52ZM38,13.77a.94.94,0,1,0,1.82.46ZM31.77,19.9a.37.37,0,0,0,.21,0,.34.34,0,0,0,.15-.45,6.3,6.3,0,0,1-.26-3.86.34.34,0,0,0-.2-.42.34.34,0,0,0-.4.23,7,7,0,0,0,.3,4.35A.3.3,0,0,0,31.77,19.9Zm1.47-.25a.26.26,0,0,0,.21,0,.35.35,0,0,0,.15-.45,6.3,6.3,0,0,1-.26-3.86.34.34,0,0,0-.2-.42.34.34,0,0,0-.4.23A7,7,0,0,0,33,19.5.28.28,0,0,0,33.24,19.65Z"/><path id="Fill-1" class="cls-2" d="M18,43.08c.08-.1.59-.51,1.06-.94h0l.31-.3h0s1.14-1.1-.14-.86h0a8.78,8.78,0,0,0-1,.29,25.72,25.72,0,0,1-2.58.67s-.3.08-.45-.07a16.48,16.48,0,0,0-3.35-3v-.08l.85-.32s.07,0,0-.08a5.3,5.3,0,0,0-3.11-.94l-.72.07H8.54C5,36.71,2,38.7,1.71,39.73,1.54,40.42,1.8,41,3,42a.91.91,0,0,0,.69.18c.13,0,1.08-.11,1.11-.12h.08v.06c-.06.24-.57.32-.89.48a.1.1,0,0,0,0,.12.08.08,0,0,0,0,0A7.31,7.31,0,0,0,6.2,44a5.91,5.91,0,0,0,3,1.53c.86.07,1.26.12,1.45.11s.1-.07.1-.07l-.62-.81a.08.08,0,0,1,0-.1h0a11.43,11.43,0,0,0,4.38-1c.14-.06.37.22.54.37.59.51,3.1,2.36,3.39,2.17s.19-.16,0-.09C18.36,45.18,17.11,44.12,18,43.08ZM4.75,39.71a.47.47,0,0,1-.33-.57A.46.46,0,0,1,5,38.82a.47.47,0,0,1,.32.57A.47.47,0,0,1,4.75,39.71Zm1.37,3.11h0a5.75,5.75,0,0,0,1.4-2.22,5.39,5.39,0,0,0,0-2.43h0C7.63,38.52,9.55,41,6.12,42.82Z"/><path class="cls-3" d="M43,37c.09-.16.66-.77,1.19-1.42h0l.35-.43h0s1.26-1.62-.33-1.09h0a10.52,10.52,0,0,0-1.18.55A29.64,29.64,0,0,1,39.87,36a.75.75,0,0,1-.59,0,22,22,0,0,0-4.86-3.3s-.08,0,0-.1l1-.58s.09-.06,0-.1a7,7,0,0,0-4.18-.65l-.91.22a1.52,1.52,0,0,1-.42.06c-4.72-.33-8.27,2.79-8.41,4.15-.1.92.33,1.59,2.05,2.63a1.28,1.28,0,0,0,.92.11c.16,0,1.36-.34,1.41-.36H26v.08c0,.32-.68.52-1.05.78a.12.12,0,0,0-.05.16l.05,0A9.5,9.5,0,0,0,28,40.35c.16,0,2.07,1.56,4.17,1.42,1.11-.07,1.64-.08,1.88-.12s.12-.11.12-.11l-1-.93c-.06-.09,0-.14.07-.15a14.87,14.87,0,0,0,5.46-2c.16-.11.51.22.76.38.85.55,4.42,2.48,4.76,2.18V40.9C43.93,39.65,42.14,38.51,43,37ZM25.4,35a.62.62,0,0,1-.53-.68.6.6,0,0,1,.65-.54h0a.61.61,0,0,1,.54.67.62.62,0,0,1-.61.63h0Zm2.32,3.76s-.08.07,0,0a7.44,7.44,0,0,0,1.4-3.11,6.82,6.82,0,0,0-.5-3.12h0c.34.47,3.26,3.35-.82,6.31Z"/></g></svg>