<svg xmlns="http://www.w3.org/2000/svg" viewBox="0 0 57.89 52"><defs><style>.cls-1{fill:#fdd609;}</style></defs><title>19資產 2</title><g id="圖層_2" data-name="圖層 2"><g id="圖層_1-2" data-name="圖層 1"><g id="圖層_1-2-2" data-name="圖層 1-2"><g id="Page-1"><g id="Group-124"><path id="Path" class="cls-1" d="M7.87,50.7A1.21,1.21,0,0,0,9,52H23.64V40s-.2-2,1.71-2h6a1.89,1.89,0,0,1,2.12,1.63,2.38,2.38,0,0,1,0,.38V52H47.85a1.5,1.5,0,0,0,1.53-1.46.74.74,0,0,0,0-.21v-22L29.27,10.36,7.87,28.27Z"/><path class="cls-1" d="M0,25.93s1.82,3.34,5.77,0l23.65-20L51.6,25.8c4.58,3.31,6.29,0,6.29,0L29.42,0Z"/><polygon class="cls-1" points="51.05 5.86 45.35 5.86 45.37 12.78 51.05 17.6 51.05 5.86"/></g></g></g></g></g></svg>