<svg id="圖層_1" data-name="圖層 1" xmlns="http://www.w3.org/2000/svg" xmlns:xlink="http://www.w3.org/1999/xlink" viewBox="0 0 46 47"><defs><style>.cls-1{fill-rule:evenodd;fill:url(#未命名漸層);}</style><linearGradient id="未命名漸層" x1="-275.37" y1="410.91" x2="-275.37" y2="411.91" gradientTransform="matrix(46, 0, 0, -46, 12690, 18947.5)" gradientUnits="userSpaceOnUse"><stop offset="0" stop-color="#ccc"/><stop offset="0.64" stop-color="#f0f0f0"/><stop offset="1" stop-color="#fff"/><stop offset="1" stop-color="#fbfbfa"/><stop offset="1" stop-color="#f0eeeb"/></linearGradient></defs><title>1工作區域 1</title><g id="Page-1"><path id="Fill-1" class="cls-1" d="M14.34,2.18a23,23,0,0,0-12.65,30A23.06,23.06,0,0,0,14.34,44.81a23,23,0,0,0,17.32,0A23.06,23.06,0,0,0,44.31,32.15a23,23,0,0,0-30-30Zm-8.59,31a15.52,15.52,0,0,1-3-2.44A21.54,21.54,0,0,1,2,18.66a19.5,19.5,0,0,1,1.47-2.44c.17-.25.33-.5.51-.73l5.19,3.07v.13A40,40,0,0,0,10,27v0L6,33.33A2.2,2.2,0,0,1,5.75,33.18ZM21.18,43.85A20.69,20.69,0,0,0,23.94,45a21.61,21.61,0,0,1-11.67-2.83L21,43.73A1.13,1.13,0,0,0,21.18,43.85Zm0-1.57L10.88,40.45A32.3,32.3,0,0,1,7.67,35.8c-.23-.42-.5-.83-.7-1.27l4-6.3.3.07A64.47,64.47,0,0,0,19,29.83l.38.05,4.82,8.34c-.84,1.17-1.68,2.34-2.55,3.5C21.46,41.91,21.31,42.1,21.15,42.28Zm17.08-3.55a21.48,21.48,0,0,1-2.59,2.21,19.35,19.35,0,0,0-.78-3.53L40,27.81a23.46,23.46,0,0,0,4.06-2.28,2.19,2.19,0,0,0,.41-.39A21.45,21.45,0,0,1,38.23,38.73ZM38,26.29l.57,1.1-5,9.27-.08,0a45.21,45.21,0,0,1-8.12.78l-5-8.57c.77-1.44,1.54-2.88,2.29-4.31.52-1,1-2,1.53-2.94l10.26-1.06A55.41,55.41,0,0,1,38,26.29Zm-2.08-11c-.48,1.29-1,2.56-1.52,3.84l-10,1c-.12-.15-.24-.31-.37-.45q-1.77-2-3.56-4a.08.08,0,0,1,0,0l-1.44-1.43,2.78-8.38a4,4,0,0,1,.58-.12c1.51-.15,3-.32,4.55-.41a23.75,23.75,0,0,1,2.8,0l6.89,7.76C36.43,13.81,36.2,14.56,35.92,15.29Zm2.31-7a21.49,21.49,0,0,1,4.41,6.38,21.94,21.94,0,0,0-4.11-2.2,7,7,0,0,0-.69-.26L31.07,4.55c0-.33.07-.66.08-1A21.4,21.4,0,0,1,38.23,8.27ZM16.1,3.16l.06,0a16.87,16.87,0,0,1,4.28,2.26l-2.59,7.83H17.8c-.53.22-1.07.41-1.59.65A46.45,46.45,0,0,0,10,17.32l-5.12-3a1.5,1.5,0,0,1,.08-.47C5.27,12.9,5.61,12,6,11.08a22.38,22.38,0,0,1,1-2c.25-.26.5-.53.76-.79a21.26,21.26,0,0,1,8.38-5.19Z"/></g></svg>