<svg id="圖層_1" data-name="圖層 1" xmlns="http://www.w3.org/2000/svg" xmlns:xlink="http://www.w3.org/1999/xlink" viewBox="0 0 46 47"><defs><style>.cls-1{fill-rule:evenodd;fill:url(#未命名漸層);}</style><linearGradient id="未命名漸層" x1="-275.37" y1="410.91" x2="-275.37" y2="411.91" gradientTransform="matrix(46, 0, 0, -46, 12690, 18948.5)" gradientUnits="userSpaceOnUse"><stop offset="0" stop-color="#ccc"/><stop offset="0.64" stop-color="#f0f0f0"/><stop offset="1" stop-color="#fff"/><stop offset="1" stop-color="#fbfbfa"/><stop offset="1" stop-color="#f0eeeb"/></linearGradient></defs><title>3工作區域 1</title><g id="Page-1"><path id="Fill-1" class="cls-1" d="M11.5,14a14.06,14.06,0,0,0,5.73-1.28,22,22,0,0,0-2.79,9.58C8,22.93,2.88,28,2.88,34.28,2.88,41,8.68,46.5,15.81,46.5A13.51,13.51,0,0,0,22,45a14.53,14.53,0,0,1-4.75-10.67A14.35,14.35,0,0,1,22,23.7a14,14,0,0,0-4.69-1.45c.63-9.53,8.3-17.38,18.19-18.82a18.8,18.8,0,0,0-3.88,11.43v7.43c-6.45.68-11.5,5.76-11.5,12,0,6.69,5.81,12.22,12.94,12.22S46,41,46,34.28c0-6.23-5-11.31-11.5-12V14.86A16.42,16.42,0,0,1,39.83,2.8L42.28.5H38.81a25.22,25.22,0,0,0-17.3,6.74,15.56,15.56,0,0,0-10-4A15.8,15.8,0,0,0,1.09,7.61L0,8.59l1.09,1A15.78,15.78,0,0,0,11.5,14ZM33.06,30.24a4.18,4.18,0,0,0-4.31,4H25.88a7,7,0,0,1,7.18-6.74Zm-17.25,0a4.18,4.18,0,0,0-4.31,4H8.62a7,7,0,0,1,7.19-6.74Z"/></g></svg>