<svg xmlns="http://www.w3.org/2000/svg" xmlns:xlink="http://www.w3.org/1999/xlink" viewBox="0 0 30 28.33"><defs><style>.cls-1{fill:url(#未命名漸層);}</style><linearGradient id="未命名漸層" x1="-279.83" y1="396.56" x2="-279.83" y2="397.55" gradientTransform="matrix(30, 0, 0, -28.33, 8410, 11264)" gradientUnits="userSpaceOnUse"><stop offset="0" stop-color="#feaa06" stop-opacity="0.99"/><stop offset="1" stop-color="#fdd609"/></linearGradient></defs><title>08資產 1</title><g id="圖層_2" data-name="圖層 2"><g id="圖層_1-2" data-name="圖層 1"><g id="Page-1"><path id="Combined-Shape" class="cls-1" d="M15,25.45a11.58,11.58,0,0,0,2.21-.22l1.71,1.23a13.08,13.08,0,0,1-7.8,0l1.71-1.23A11.09,11.09,0,0,0,15,25.45ZM12.23,3.22a11.35,11.35,0,0,0-7.46,6H3a13,13,0,0,1,9.83-7.75ZM3.68,15.49a11.29,11.29,0,0,0,2.59,5.93L5.7,23.18A12.79,12.79,0,0,1,2,14.26ZM25.16,9.2a11.4,11.4,0,0,0-7.39-6l-.58-1.77A13,13,0,0,1,27,9.2Zm-.89,19.13L15,21.68,5.73,28.33,9.24,17.52,0,10.82l11.44,0L15,0l3.56,10.8,11.44,0-9.24,6.7Zm2-12.79L28,14.31a12.83,12.83,0,0,1-3.66,8.82l-.58-1.77A11.14,11.14,0,0,0,26.24,15.54Z"/></g></g></g></svg>