<svg xmlns="http://www.w3.org/2000/svg" xmlns:xlink="http://www.w3.org/1999/xlink" viewBox="0 0 24.5 28"><defs><style>.cls-1{fill:url(#未命名漸層);}</style><linearGradient id="未命名漸層" x1="-280.54" y1="396.4" x2="-280.54" y2="397.39" gradientTransform="matrix(24.5, 0, 0, -28, 6885.5, 11127)" gradientUnits="userSpaceOnUse"><stop offset="0" stop-color="#feaa06" stop-opacity="0.99"/><stop offset="1" stop-color="#fdd609"/></linearGradient></defs><title>10資產 1</title><g id="圖層_2" data-name="圖層 2"><g id="圖層_1-2" data-name="圖層 1"><g id="Page-1"><path id="Shape" class="cls-1" d="M24.39,1.68a1.27,1.27,0,0,0-1.28-1H20.29A1.3,1.3,0,0,0,19.15,0H5.35A1.3,1.3,0,0,0,4.21.65H1.39a1.28,1.28,0,0,0-1.28,1A10,10,0,0,0,.41,6a7.61,7.61,0,0,0,4,4.7c-.4.95-.89,2-1.49,3.15a.64.64,0,0,0,.1.72A13.65,13.65,0,0,0,9.2,18.41a.66.66,0,0,0,0,.14v.08a1.63,1.63,0,0,0,.91,1.45,9.17,9.17,0,0,1-.72,4H6.92a1,1,0,0,0-1,.94v2.07a1,1,0,0,0,1,.94H17.58a1,1,0,0,0,1-.94V25a1,1,0,0,0-1-.94H15.12a9.17,9.17,0,0,1-.72-4,1.63,1.63,0,0,0,.91-1.45v-.08c0-.05,0-.09,0-.14a13.65,13.65,0,0,0,6.16-3.87.64.64,0,0,0,.1-.72c-.6-1.15-1.09-2.2-1.49-3.15a7.62,7.62,0,0,0,4-4.7A9.92,9.92,0,0,0,24.39,1.68ZM2.94,5.34A7.13,7.13,0,0,1,2.6,3.13H4.21a1.32,1.32,0,0,0,1.14.65A1.31,1.31,0,0,0,6,3.62v0a11.38,11.38,0,0,1-.68,4.64A5.06,5.06,0,0,1,2.94,5.34ZM8.21,15.41c-1,.25-2.1-.61-2.66-1.32a.63.63,0,0,1-.2-.57,1.2,1.2,0,0,1,.22-.36,10.45,10.45,0,0,0,.87-1.57A19,19,0,0,0,7.66,8.07c.22-.91.36-1.83.55-2.74a12.38,12.38,0,0,1-.13,4.58,11,11,0,0,1-.49,1.7,9,9,0,0,1-1,2.05A7.1,7.1,0,0,0,8.21,15.41ZM21.56,5.34a5,5,0,0,1-2.37,2.95,11,11,0,0,1-.67-4.67,1.31,1.31,0,0,0,.63.16,1.32,1.32,0,0,0,1.14-.65H21.9A7.13,7.13,0,0,1,21.56,5.34Z"/></g></g></g></svg>