<svg xmlns="http://www.w3.org/2000/svg" xmlns:xlink="http://www.w3.org/1999/xlink" viewBox="0 0 30 16"><defs><style>.cls-1{fill:url(#未命名漸層);}</style><linearGradient id="未命名漸層" x1="-279.83" y1="379.82" x2="-279.83" y2="380.81" gradientTransform="matrix(30, 0, 0, -16, 8410, 6092.99)" gradientUnits="userSpaceOnUse"><stop offset="0" stop-color="#feaa06" stop-opacity="0.99"/><stop offset="1" stop-color="#fdd609"/></linearGradient></defs><title>06資產 1</title><g id="圖層_2" data-name="圖層 2"><g id="圖層_1-2" data-name="圖層 1"><g id="Page-1"><path id="Shape" class="cls-1" d="M27.66,2.34A7.73,7.73,0,0,0,22,0H8A7.73,7.73,0,0,0,2.34,2.34,7.73,7.73,0,0,0,0,8a7.73,7.73,0,0,0,2.34,5.66A7.73,7.73,0,0,0,8,16a7.78,7.78,0,0,0,5.28-2h3.44a8,8,0,0,0,10.94-.34A7.73,7.73,0,0,0,30,8,7.73,7.73,0,0,0,27.66,2.34ZM13,9a.48.48,0,0,1-.5.5h-3v3A.48.48,0,0,1,9,13H7a.48.48,0,0,1-.5-.5v-3h-3A.48.48,0,0,1,3,9V7a.48.48,0,0,1,.5-.5h3v-3A.48.48,0,0,1,7,3H9a.48.48,0,0,1,.5.5v3h3A.48.48,0,0,1,13,7V9Zm8.41,2.41a2,2,0,1,1-2.82-2.82,2,2,0,1,1,2.82,2.82Zm4-4A2,2,0,0,1,22,6a2,2,0,1,1,3.41,1.41Z"/></g></g></g></svg>