<svg xmlns="http://www.w3.org/2000/svg" xmlns:xlink="http://www.w3.org/1999/xlink" viewBox="0 0 30 30"><defs><style>.cls-1{fill:url(#未命名漸層);}</style><linearGradient id="未命名漸層" x1="-279.83" y1="398.34" x2="-279.83" y2="399.33" gradientTransform="matrix(30, 0, 0, -30, 8410, 11980)" gradientUnits="userSpaceOnUse"><stop offset="0" stop-color="#feaa06" stop-opacity="0.99"/><stop offset="1" stop-color="#fdd609"/></linearGradient></defs><title>11資產 1</title><g id="圖層_2" data-name="圖層 2"><g id="圖層_1-2" data-name="圖層 1"><g id="Page-1"><path id="Combined-Shape" class="cls-1" d="M25.72,21.09l2,1.95a15.13,15.13,0,0,1-4.61,4.61L21.11,25.7A12.43,12.43,0,0,0,25.72,21.09Zm-21.44,0A12.43,12.43,0,0,0,8.89,25.7L6.94,27.65A15.13,15.13,0,0,1,2.33,23Zm15.83,5.12,2,2-.34.17a15,15,0,0,1-13.54,0l-.34-.17,2-2,.19.09a12,12,0,0,0,2.77.82,12.5,12.5,0,0,0,7.07-.82ZM3.58,19.67c0,.08.07.16.1.23s0,.13.08.19l-2,2c-.06-.11-.11-.22-.17-.34s-.23-.47-.34-.71a15.33,15.33,0,0,1-.74-10,13.6,13.6,0,0,1,.55-1.67c.05-.14.74-1.49.7-1.52l2,2a12.14,12.14,0,0,0-.85,2.64A12.4,12.4,0,0,0,3.58,19.67ZM17.69.24a14.76,14.76,0,0,1,4.42,1.52l-2,2-.36-.16a12.57,12.57,0,0,0-9.44,0l-.23.1-.19.08-2-2,.33-.17.35-.17A15,15,0,0,1,13,.13,15.31,15.31,0,0,1,17.69.24Zm5.37,2.09a15.1,15.1,0,0,1,4.61,4.6l-2,2a12.41,12.41,0,0,0-4.61-4.6Zm5.35,5.89A15.1,15.1,0,0,1,30,15a15.05,15.05,0,0,1-1.59,6.78c-.06.11-.12.22-.17.33l-2-2c0-.06.05-.12.08-.19s.06-.15.1-.23l.14-.36a12.42,12.42,0,0,0-.14-9,1.6,1.6,0,0,1-.1-.23c0-.06-.05-.12-.08-.19l2-2C28.3,8,28.35,8.11,28.41,8.22ZM6.94,2.33l2,2a12.41,12.41,0,0,0-4.61,4.6l-1.95-2A15.1,15.1,0,0,1,6.94,2.33Zm12,10.84a3.08,3.08,0,0,1,.32,4,2.56,2.56,0,0,1-1.88,1,1.46,1.46,0,0,1-.91-.36,3,3,0,0,1-.75-1c-.16-.32-.25-.8-.69-.82s-.53.42-.68.72c-.32.66-.91,1.42-1.71,1.42a2.51,2.51,0,0,1-1.88-1,3.09,3.09,0,0,1,.32-4c.61-.66,3-3.29,3.93-4.35C16,9.88,18.31,12.51,18.93,13.17Zm7.27.63a11.71,11.71,0,0,1,0,2.58,11.26,11.26,0,0,1-12.75,9.75,11.18,11.18,0,0,1-5.86-2.69,11.24,11.24,0,0,1-1-15.9A11.28,11.28,0,0,1,24.81,9.45,11.22,11.22,0,0,1,26.2,13.8Zm-6.15,4.07a4.18,4.18,0,0,0-.34-5.43C19,11.63,15.44,7.7,15.4,7.66a.53.53,0,0,0-.8,0s-3.56,4-4.32,4.78a4.16,4.16,0,0,0-.34,5.43,3.58,3.58,0,0,0,2.69,1.41,2.44,2.44,0,0,0,1.44-.5c-.56,1.54-1.58,2.64-2.29,2.64a.54.54,0,1,0,0,1.07h6.44a.54.54,0,1,0,0-1.07c-.71,0-1.73-1.1-2.29-2.64a2.44,2.44,0,0,0,1.44.5A3.56,3.56,0,0,0,20.05,17.87Z"/></g></g></g></svg>