<svg xmlns="http://www.w3.org/2000/svg" xmlns:xlink="http://www.w3.org/1999/xlink" viewBox="0 0 26.28 28"><defs><style>.cls-1{fill:url(#未命名漸層);}</style><linearGradient id="未命名漸層" x1="-280.39" y1="396.4" x2="-280.39" y2="397.39" gradientTransform="matrix(26.28, 0, 0, -28, 7382.66, 11127)" gradientUnits="userSpaceOnUse"><stop offset="0" stop-color="#feaa06" stop-opacity="0.99"/><stop offset="1" stop-color="#fdd609"/></linearGradient></defs><title>12資產 1</title><g id="圖層_2" data-name="圖層 2"><g id="圖層_1-2" data-name="圖層 1"><g id="Page-1"><path id="Combined-Shape" class="cls-1" d="M9.26,0c1.82,0,3.3,2.14,3.3,4,0,4-6.28,7.36-6.28,7.36S0,7.92,0,4C0,2.14,1.48,0,3.3,0a3.29,3.29,0,0,1,3,1.91A3.29,3.29,0,0,1,9.26,0Zm-3,13.44s6.28,3.39,6.28,7.36c0,1.82-1.48,4-3.3,4a3.16,3.16,0,0,1-1.47-.36.35.35,0,0,0-.38.05.34.34,0,0,0-.09.37l.87,2.29a.65.65,0,0,1-.61.89H5a.65.65,0,0,1-.61-.89l.87-2.29a.34.34,0,0,0-.09-.37.35.35,0,0,0-.38-.05,3.16,3.16,0,0,1-1.47.36c-1.82,0-3.3-2.14-3.3-4C0,16.83,6.28,13.44,6.28,13.44Zm16.78,4.87a3.23,3.23,0,0,1,0,6.45,3.28,3.28,0,0,1-1.13-.21.33.33,0,0,0-.43.43l.81,2.13a.66.66,0,0,1-.07.61.68.68,0,0,1-.54.28H19.1a.66.66,0,0,1-.62-.89L19.3,25a.36.36,0,0,0-.08-.36.33.33,0,0,0-.36-.08,3.22,3.22,0,1,1-1.13-6.24h0a3.27,3.27,0,0,1-.56-1.83,3.22,3.22,0,1,1,5.87,1.83Zm-2.64,1.45s0,0,0,0h0ZM20.14,12l-5-5.69a.35.35,0,0,1,0-.45l5-5.62A.33.33,0,0,1,20.4.17a.36.36,0,0,1,.25.11l5,5.62a.33.33,0,0,1,0,.45l-5,5.69a.35.35,0,0,1-.25.12A.37.37,0,0,1,20.14,12Z"/></g></g></g></svg>